STARTFONT 2.1
FONT -Bitstream-Charter-Medium-I-Normal--19-140-100-100-P-103-ISO8859-15
SIZE 14 100 100
FONTBOUNDINGBOX 22 24 -3 -5

STARTPROPERTIES 25
FONTNAME_REGISTRY ""
FAMILY_NAME "Charter"
FOUNDRY "Bitstream"
WEIGHT_NAME "Medium"
SETWIDTH_NAME "Normal"
SLANT "I"
ADD_STYLE_NAME ""
PIXEL_SIZE 19
POINT_SIZE 140
RESOLUTION_X 100
RESOLUTION_Y 100
SPACING "P"
AVERAGE_WIDTH 103
CHARSET_REGISTRY "ISO8859"
CHARSET_ENCODING "15"
CAP_HEIGHT 14
X_HEIGHT 9
CHARSET_COLLECTIONS "ASCII ISOLATIN1"
FACE_NAME "Bitstream Charter Italic"
COPYRIGHT "Copyright 1987 by Bitstream Inc. Charter Registered trademark of Bitstream Inc."
WEIGHT 10
QUAD_WIDTH 11
DEFAULT_CHAR 0
FONT_DESCENT 5
FONT_ASCENT 19
ENDPROPERTIES

CHARS 191

STARTCHAR space
ENCODING 32
SWIDTH 278 0
DWIDTH 5 0
BBX 1 1 0 0
BITMAP
00
ENDCHAR

STARTCHAR exclam
ENCODING 33
SWIDTH 338 0
DWIDTH 7 0
BBX 4 14 2 0
BITMAP
30
30
30
30
20
60
60
60
40
40
40
00
C0
C0
ENDCHAR

STARTCHAR quotedbl
ENCODING 34
SWIDTH 331 0
DWIDTH 7 0
BBX 5 6 1 7
BITMAP
D8
D8
D8
D8
48
48
ENDCHAR

STARTCHAR numbersign
ENCODING 35
SWIDTH 745 0
DWIDTH 14 0
BBX 12 14 1 -1
BITMAP
0220
0440
0440
0440
7FF0
0880
0880
1100
FFE0
1100
2200
2200
2200
4400
ENDCHAR

STARTCHAR dollar
ENCODING 36
SWIDTH 556 0
DWIDTH 11 0
BBX 10 16 0 -2
BITMAP
0FC0
1AC0
3240
2480
3400
3C00
1C00
0F00
0780
0980
4980
C980
CB00
7C00
1000
1000
ENDCHAR

STARTCHAR percent
ENCODING 37
SWIDTH 852 0
DWIDTH 16 0
BBX 15 13 1 0
BITMAP
3804
6408
4410
8420
8440
8C9C
8922
7222
0442
0842
1046
204C
6038
ENDCHAR

STARTCHAR ampersand
ENCODING 38
SWIDTH 704 0
DWIDTH 14 0
BBX 13 14 0 0
BITMAP
0780
18C0
10C0
30C0
3080
1980
1E00
3C78
6610
C320
C1C0
C180
E3E0
7C70
ENDCHAR

STARTCHAR quoteright
ENCODING 39
SWIDTH 201 0
DWIDTH 4 0
BBX 3 5 1 8
BITMAP
60
60
20
40
C0
ENDCHAR

STARTCHAR parenleft
ENCODING 40
SWIDTH 419 0
DWIDTH 8 0
BBX 8 16 1 -3
BITMAP
03
0C
18
30
30
60
60
60
C0
C0
C0
C0
C0
60
20
18
ENDCHAR

STARTCHAR parenright
ENCODING 41
SWIDTH 419 0
DWIDTH 8 0
BBX 7 16 -1 -3
BITMAP
10
08
04
06
06
06
06
06
04
0C
0C
08
18
10
20
C0
ENDCHAR

STARTCHAR asterisk
ENCODING 42
SWIDTH 500 0
DWIDTH 10 0
BBX 8 7 2 6
BITMAP
08
08
4B
EE
18
68
4C
ENDCHAR

STARTCHAR plus
ENCODING 43
SWIDTH 833 0
DWIDTH 16 0
BBX 11 11 3 0
BITMAP
0400
0400
0400
0400
0400
FFE0
0400
0400
0400
0400
0400
ENDCHAR

STARTCHAR comma
ENCODING 44
SWIDTH 278 0
DWIDTH 5 0
BBX 3 6 -1 -4
BITMAP
60
60
20
20
40
80
ENDCHAR

STARTCHAR hyphen
ENCODING 45
SWIDTH 319 0
DWIDTH 6 0
BBX 4 1 1 4
BITMAP
F0
ENDCHAR

STARTCHAR period
ENCODING 46
SWIDTH 278 0
DWIDTH 5 0
BBX 2 2 0 0
BITMAP
C0
C0
ENDCHAR

STARTCHAR slash
ENCODING 47
SWIDTH 481 0
DWIDTH 9 0
BBX 12 16 -2 -2
BITMAP
0010
0020
0040
0040
0080
0100
0300
0200
0400
0C00
0800
1000
3000
2000
4000
C000
ENDCHAR

STARTCHAR zero
ENCODING 48
SWIDTH 556 0
DWIDTH 11 0
BBX 10 14 1 0
BITMAP
0F00
1980
30C0
20C0
60C0
60C0
C0C0
C0C0
C180
C180
C100
C300
6600
3C00
ENDCHAR

STARTCHAR one
ENCODING 49
SWIDTH 556 0
DWIDTH 11 0
BBX 6 14 1 0
BITMAP
1C
7C
0C
08
08
08
18
18
18
10
10
10
30
FC
ENDCHAR

STARTCHAR two
ENCODING 50
SWIDTH 556 0
DWIDTH 11 0
BBX 10 14 0 0
BITMAP
0F80
11C0
30C0
30C0
00C0
0180
0180
0300
0600
0C00
1800
3080
4080
FF80
ENDCHAR

STARTCHAR three
ENCODING 51
SWIDTH 556 0
DWIDTH 11 0
BBX 10 14 0 0
BITMAP
0F80
11C0
30C0
30C0
0080
0300
0E00
0180
0180
0180
C180
C300
C600
7C00
ENDCHAR

STARTCHAR four
ENCODING 52
SWIDTH 556 0
DWIDTH 11 0
BBX 10 15 0 -1
BITMAP
00C0
0180
0380
0680
0D80
0980
1180
2100
4100
FFC0
0300
0300
0200
0200
0200
ENDCHAR

STARTCHAR five
ENCODING 53
SWIDTH 556 0
DWIDTH 11 0
BBX 10 14 0 0
BITMAP
1FC0
1000
1000
3000
2000
3E00
0300
0180
0180
0180
0100
C300
C600
7800
ENDCHAR

STARTCHAR six
ENCODING 54
SWIDTH 556 0
DWIDTH 11 0
BBX 9 13 1 0
BITMAP
0380
0C00
1800
3000
2000
7E00
6380
C180
C180
C180
C300
6200
3C00
ENDCHAR

STARTCHAR seven
ENCODING 55
SWIDTH 556 0
DWIDTH 11 0
BBX 11 15 1 -1
BITMAP
3FE0
40C0
40C0
0180
0100
0300
0600
0400
0C00
1800
1000
3000
6000
4000
C000
ENDCHAR

STARTCHAR eight
ENCODING 56
SWIDTH 556 0
DWIDTH 11 0
BBX 10 14 0 0
BITMAP
0F00
19C0
30C0
30C0
30C0
3980
1E00
3700
6180
C180
C180
C180
6300
3C00
ENDCHAR

STARTCHAR nine
ENCODING 57
SWIDTH 556 0
DWIDTH 11 0
BBX 10 16 1 -2
BITMAP
0F00
3180
60C0
60C0
C0C0
C0C0
C0C0
C0C0
6380
3D80
0300
0600
0C00
1800
6000
8000
ENDCHAR

STARTCHAR colon
ENCODING 58
SWIDTH 319 0
DWIDTH 6 0
BBX 4 9 1 0
BITMAP
70
30
00
00
00
00
00
E0
C0
ENDCHAR

STARTCHAR semicolon
ENCODING 59
SWIDTH 319 0
DWIDTH 6 0
BBX 5 13 -1 -4
BITMAP
18
18
00
00
00
00
00
30
70
10
20
20
C0
ENDCHAR

STARTCHAR less
ENCODING 60
SWIDTH 833 0
DWIDTH 16 0
BBX 11 10 2 0
BITMAP
0020
01C0
0700
3800
E000
E000
3800
0700
01C0
0020
ENDCHAR

STARTCHAR equal
ENCODING 61
SWIDTH 833 0
DWIDTH 16 0
BBX 11 5 3 3
BITMAP
FFE0
0000
0000
0000
FFE0
ENDCHAR

STARTCHAR greater
ENCODING 62
SWIDTH 833 0
DWIDTH 16 0
BBX 11 10 3 0
BITMAP
8000
7000
1C00
0380
00E0
00E0
0380
1C00
7000
8000
ENDCHAR

STARTCHAR question
ENCODING 63
SWIDTH 486 0
DWIDTH 9 0
BBX 7 14 1 0
BITMAP
78
CE
C6
06
06
0C
08
30
40
40
40
00
C0
C0
ENDCHAR

STARTCHAR at
ENCODING 64
SWIDTH 942 0
DWIDTH 18 0
BBX 15 16 2 -3
BITMAP
03E0
0C18
1004
6004
41D2
4332
8622
8C22
8C22
8C64
8CE8
C770
6000
3000
1C18
07E0
ENDCHAR

STARTCHAR A
ENCODING 65
SWIDTH 606 0
DWIDTH 11 0
BBX 13 14 -2 0
BITMAP
00C0
01C0
01C0
0340
0240
0460
0460
0860
0FE0
1060
3020
2030
6030
F078
ENDCHAR

STARTCHAR B
ENCODING 66
SWIDTH 588 0
DWIDTH 11 0
BBX 11 14 -1 0
BITMAP
3FC0
08E0
1860
1860
1840
1180
1F80
30C0
3060
3060
30C0
20C0
2180
FF00
ENDCHAR

STARTCHAR C
ENCODING 67
SWIDTH 604 0
DWIDTH 12 0
BBX 11 14 1 0
BITMAP
07C0
0C20
3020
2020
6000
6000
C000
C000
C000
C000
C080
6080
3080
1F00
ENDCHAR

STARTCHAR D
ENCODING 68
SWIDTH 671 0
DWIDTH 13 0
BBX 13 14 -1 0
BITMAP
3FC0
0860
0830
1818
1818
1818
1818
1018
3030
3030
3060
3060
2180
FE00
ENDCHAR

STARTCHAR E
ENCODING 69
SWIDTH 546 0
DWIDTH 10 0
BBX 11 14 0 0
BITMAP
3FE0
0820
1820
1800
1880
1080
1F00
3100
3100
3000
3040
2040
2080
FF80
ENDCHAR

STARTCHAR F
ENCODING 70
SWIDTH 509 0
DWIDTH 10 0
BBX 11 14 -1 0
BITMAP
3FE0
0860
1860
1800
1880
1080
1F00
1100
3100
3000
3000
2000
2000
F800
ENDCHAR

STARTCHAR G
ENCODING 71
SWIDTH 664 0
DWIDTH 13 0
BBX 12 14 1 0
BITMAP
03F0
0C30
1820
3020
6000
6000
C000
C1F0
C040
C0C0
C0C0
60C0
30C0
1F80
ENDCHAR

STARTCHAR H
ENCODING 72
SWIDTH 712 0
DWIDTH 14 0
BBX 15 14 -1 0
BITMAP
3E3E
0808
1808
1818
1818
1818
1FF0
1010
3030
3030
3030
2030
2020
F8F8
ENDCHAR

STARTCHAR I
ENCODING 73
SWIDTH 313 0
DWIDTH 6 0
BBX 7 14 0 0
BITMAP
3E
08
18
18
18
18
10
10
30
30
30
30
20
F8
ENDCHAR

STARTCHAR J
ENCODING 74
SWIDTH 447 0
DWIDTH 9 0
BBX 10 14 -1 0
BITMAP
07C0
0100
0100
0300
0300
0300
0300
0200
0200
0600
4600
C400
CC00
F800
ENDCHAR

STARTCHAR K
ENCODING 75
SWIDTH 625 0
DWIDTH 12 0
BBX 13 14 -1 0
BITMAP
3EF8
0820
1840
1880
1900
1200
1600
3E00
3300
3300
3100
2180
20C0
F8E0
ENDCHAR

STARTCHAR L
ENCODING 76
SWIDTH 498 0
DWIDTH 9 0
BBX 9 14 -1 0
BITMAP
3E00
1800
1800
1800
1800
1000
1000
3000
3000
3000
3080
2080
2180
FF00
ENDCHAR

STARTCHAR M
ENCODING 77
SWIDTH 839 0
DWIDTH 16 0
BBX 17 14 -1 0
BITMAP
3C0780
0C0600
140A00
140A00
161600
161600
162600
222400
224400
224400
238C00
238C00
230C00
F13E00
ENDCHAR

STARTCHAR N
ENCODING 78
SWIDTH 683 0
DWIDTH 14 0
BBX 15 14 -1 0
BITMAP
3C1E
0C08
0E08
1608
1208
1308
1310
1190
3190
20D0
20D0
2070
2060
F020
ENDCHAR

STARTCHAR O
ENCODING 79
SWIDTH 708 0
DWIDTH 14 0
BBX 12 14 1 0
BITMAP
0780
18C0
3060
2030
6030
6030
C030
C030
C060
C060
C060
60C0
3180
1E00
ENDCHAR

STARTCHAR P
ENCODING 80
SWIDTH 542 0
DWIDTH 10 0
BBX 11 14 -1 0
BITMAP
3F80
08C0
1860
1860
1860
1060
10C0
3180
3F00
3000
3000
2000
2000
F000
ENDCHAR

STARTCHAR Q
ENCODING 81
SWIDTH 708 0
DWIDTH 14 0
BBX 13 17 1 -3
BITMAP
0780
18C0
3060
2030
6030
6030
C030
C030
C060
C060
C060
60C0
3180
1F00
0300
0188
00F0
ENDCHAR

STARTCHAR R
ENCODING 82
SWIDTH 602 0
DWIDTH 11 0
BBX 12 14 -1 0
BITMAP
3F80
08C0
1860
1860
1860
18C0
1180
3E00
3100
3180
3080
20C0
20C0
F870
ENDCHAR

STARTCHAR S
ENCODING 83
SWIDTH 537 0
DWIDTH 10 0
BBX 10 14 0 0
BITMAP
0780
18C0
1080
3080
3000
3800
1C00
0700
0380
0180
4180
4100
C300
7C00
ENDCHAR

STARTCHAR T
ENCODING 84
SWIDTH 565 0
DWIDTH 11 0
BBX 11 14 1 0
BITMAP
7FE0
C460
8460
0C00
0C00
0C00
0800
0800
1800
1800
1800
1800
1000
7C00
ENDCHAR

STARTCHAR U
ENCODING 85
SWIDTH 664 0
DWIDTH 13 0
BBX 13 14 1 0
BITMAP
F878
3020
2020
6020
6020
6020
6040
4040
C040
C040
C040
C080
E180
3E00
ENDCHAR

STARTCHAR V
ENCODING 86
SWIDTH 590 0
DWIDTH 12 0
BBX 12 14 1 0
BITMAP
F0F0
6020
6040
2040
2080
2080
3100
3100
3200
3200
1400
1400
1800
1800
ENDCHAR

STARTCHAR W
ENCODING 87
SWIDTH 898 0
DWIDTH 17 0
BBX 17 14 1 0
BITMAP
F08780
60C100
61C200
61C200
62C400
22C400
264400
244800
244800
285000
285000
306000
306000
306000
ENDCHAR

STARTCHAR X
ENCODING 88
SWIDTH 569 0
DWIDTH 11 0
BBX 14 14 -2 0
BITMAP
1E3C
0C10
0420
0660
0640
0380
0300
0300
0780
0C80
18C0
10C0
2060
F1F0
ENDCHAR

STARTCHAR Y
ENCODING 89
SWIDTH 563 0
DWIDTH 11 0
BBX 11 14 1 0
BITMAP
F1E0
6080
2080
3100
3200
1200
1400
1800
1800
1800
1800
1000
1000
7C00
ENDCHAR

STARTCHAR Z
ENCODING 90
SWIDTH 556 0
DWIDTH 11 0
BBX 12 14 -1 0
BITMAP
1FF0
1060
10E0
20C0
0180
0300
0600
0600
0C00
1800
3040
7040
60C0
FFC0
ENDCHAR

STARTCHAR bracketleft
ENCODING 91
SWIDTH 421 0
DWIDTH 8 0
BBX 8 16 1 -3
BITMAP
1F
18
10
10
30
30
30
20
20
60
60
40
40
40
C0
F8
ENDCHAR

STARTCHAR backslash
ENCODING 92
SWIDTH 481 0
DWIDTH 9 0
BBX 8 16 1 -2
BITMAP
80
40
40
20
20
20
10
10
08
08
04
04
04
02
02
01
ENDCHAR

STARTCHAR bracketright
ENCODING 93
SWIDTH 421 0
DWIDTH 8 0
BBX 8 16 -1 -3
BITMAP
1F
03
03
02
02
06
06
04
04
04
0C
0C
08
08
18
F8
ENDCHAR

STARTCHAR asciicircum
ENCODING 94
SWIDTH 1000 0
DWIDTH 19 0
BBX 11 5 4 8
BITMAP
0E00
1B00
3180
60C0
8020
ENDCHAR

STARTCHAR underscore
ENCODING 95
SWIDTH 500 0
DWIDTH 10 0
BBX 10 1 0 -5
BITMAP
FFC0
ENDCHAR

STARTCHAR quoteleft
ENCODING 96
SWIDTH 201 0
DWIDTH 4 0
BBX 4 5 1 8
BITMAP
30
40
C0
E0
E0
ENDCHAR

STARTCHAR a
ENCODING 97
SWIDTH 525 0
DWIDTH 10 0
BBX 9 9 0 0
BITMAP
0F80
3180
6100
6100
C100
C300
C300
E600
7B80
ENDCHAR

STARTCHAR b
ENCODING 98
SWIDTH 507 0
DWIDTH 10 0
BBX 9 14 0 0
BITMAP
7000
1000
3000
3000
3000
2F00
7380
6180
6180
6180
4100
C300
C600
7800
ENDCHAR

STARTCHAR c
ENCODING 99
SWIDTH 394 0
DWIDTH 8 0
BBX 7 9 0 0
BITMAP
0E
36
60
40
C0
C0
C2
66
38
ENDCHAR

STARTCHAR d
ENCODING 100
SWIDTH 523 0
DWIDTH 10 0
BBX 9 14 0 0
BITMAP
0380
0080
0080
0180
0100
0F00
1100
6100
4100
C100
C300
C200
E600
7B80
ENDCHAR

STARTCHAR e
ENCODING 101
SWIDTH 424 0
DWIDTH 8 0
BBX 7 9 0 0
BITMAP
1C
26
66
48
F0
C0
C0
C6
38
ENDCHAR

STARTCHAR f
ENCODING 102
SWIDTH 292 0
DWIDTH 6 0
BBX 11 19 -3 -5
BITMAP
00E0
0160
0200
0200
0600
0F80
0400
0400
0400
0C00
0C00
0C00
0800
0800
0800
1800
1000
E000
C000
ENDCHAR

STARTCHAR g
ENCODING 103
SWIDTH 481 0
DWIDTH 10 0
BBX 10 14 0 -5
BITMAP
0C00
33C0
6300
6300
2600
1800
1000
3800
4E00
8700
8300
8300
C600
7800
ENDCHAR

STARTCHAR h
ENCODING 104
SWIDTH 551 0
DWIDTH 11 0
BBX 10 14 0 0
BITMAP
7800
1800
1000
1000
3000
3780
3980
2180
2180
6100
6100
6300
4300
C3C0
ENDCHAR

STARTCHAR i
ENCODING 105
SWIDTH 287 0
DWIDTH 6 0
BBX 4 14 1 0
BITMAP
30
30
00
00
00
E0
60
60
40
40
C0
C0
C0
F0
ENDCHAR

STARTCHAR j
ENCODING 106
SWIDTH 269 0
DWIDTH 5 0
BBX 8 19 -3 -5
BITMAP
03
03
00
00
00
1E
06
06
06
06
04
04
0C
0C
0C
08
08
90
E0
ENDCHAR

STARTCHAR k
ENCODING 107
SWIDTH 514 0
DWIDTH 10 0
BBX 9 14 0 0
BITMAP
7800
1000
1000
1000
3000
3180
2680
2400
3800
6800
6C00
4400
4600
C380
ENDCHAR

STARTCHAR l
ENCODING 108
SWIDTH 275 0
DWIDTH 5 0
BBX 4 14 0 0
BITMAP
F0
30
30
20
20
60
60
40
40
40
C0
C0
C0
F0
ENDCHAR

STARTCHAR m
ENCODING 109
SWIDTH 815 0
DWIDTH 16 0
BBX 15 9 1 0
BITMAP
F73C
39CC
618C
610C
6108
4308
4318
C318
C21E
ENDCHAR

STARTCHAR n
ENCODING 110
SWIDTH 556 0
DWIDTH 11 0
BBX 10 9 1 0
BITMAP
F780
3980
6180
6180
6100
4100
4300
C300
C3C0
ENDCHAR

STARTCHAR o
ENCODING 111
SWIDTH 502 0
DWIDTH 10 0
BBX 9 9 0 0
BITMAP
0E00
3300
6180
4180
C180
C180
C300
6600
3800
ENDCHAR

STARTCHAR p
ENCODING 112
SWIDTH 516 0
DWIDTH 10 0
BBX 10 14 -1 -5
BITMAP
3780
19C0
10C0
30C0
30C0
2080
2180
2300
3C00
2000
6000
4000
4000
F000
ENDCHAR

STARTCHAR q
ENCODING 113
SWIDTH 512 0
DWIDTH 10 0
BBX 9 14 0 -5
BITMAP
0E80
1380
6180
6100
C100
C300
C300
E700
7A00
0200
0600
0600
0600
0F80
ENDCHAR

STARTCHAR r
ENCODING 114
SWIDTH 398 0
DWIDTH 8 0
BBX 7 9 1 0
BITMAP
EE
36
60
60
40
40
40
C0
C0
ENDCHAR

STARTCHAR s
ENCODING 115
SWIDTH 370 0
DWIDTH 7 0
BBX 6 9 0 0
BITMAP
1C
2C
60
20
38
0C
C8
88
70
ENDCHAR

STARTCHAR t
ENCODING 116
SWIDTH 333 0
DWIDTH 7 0
BBX 6 11 1 0
BITMAP
20
20
FC
60
60
40
40
C0
C0
C0
F8
ENDCHAR

STARTCHAR u
ENCODING 117
SWIDTH 553 0
DWIDTH 11 0
BBX 9 9 1 0
BITMAP
E180
6180
6100
4100
4300
C300
C200
CE00
7380
ENDCHAR

STARTCHAR v
ENCODING 118
SWIDTH 454 0
DWIDTH 9 0
BBX 9 9 0 0
BITMAP
E180
3180
3180
3100
3200
1200
1400
1800
3000
ENDCHAR

STARTCHAR w
ENCODING 119
SWIDTH 713 0
DWIDTH 14 0
BBX 14 9 0 0
BITMAP
E18C
218C
238C
2388
2590
2990
29A0
31C0
3080
ENDCHAR

STARTCHAR x
ENCODING 120
SWIDTH 477 0
DWIDTH 9 0
BBX 10 9 -1 0
BITMAP
78C0
1940
0A00
0C00
0C00
0C00
1400
A600
C380
ENDCHAR

STARTCHAR y
ENCODING 121
SWIDTH 475 0
DWIDTH 10 0
BBX 12 14 -2 -5
BITMAP
3830
0C60
0C40
0440
0480
0480
0700
0700
0200
0200
0400
0C00
D800
E000
ENDCHAR

STARTCHAR z
ENCODING 122
SWIDTH 440 0
DWIDTH 8 0
BBX 9 9 -1 0
BITMAP
3F80
4500
6200
2400
0800
1300
2100
7900
FE00
ENDCHAR

STARTCHAR braceleft
ENCODING 123
SWIDTH 486 0
DWIDTH 9 0
BBX 7 16 1 -3
BITMAP
0E
18
10
10
10
10
30
C0
30
10
10
10
10
10
18
0E
ENDCHAR

STARTCHAR bar
ENCODING 124
SWIDTH 500 0
DWIDTH 10 0
BBX 1 19 5 -5
BITMAP
80
80
80
80
80
80
80
80
80
80
80
80
80
80
80
80
80
80
80
ENDCHAR

STARTCHAR braceright
ENCODING 125
SWIDTH 486 0
DWIDTH 9 0
BBX 7 16 1 -3
BITMAP
E0
30
10
10
10
10
18
06
18
10
10
10
10
10
30
E0
ENDCHAR

STARTCHAR c0126
ENCODING 126
SWIDTH 1000 0
DWIDTH 19 0
BBX 11 2 4 10
BITMAP
3C60
C780
ENDCHAR

STARTCHAR space
ENCODING 160
SWIDTH 278 0
DWIDTH 5 0
BBX 1 1 0 0
BITMAP
00
ENDCHAR

STARTCHAR exclamdown
ENCODING 161
SWIDTH 338 0
DWIDTH 7 0
BBX 4 14 2 0
BITMAP
30
30
00
20
20
20
60
60
60
40
C0
C0
C0
C0
ENDCHAR

STARTCHAR cent
ENCODING 162
SWIDTH 556 0
DWIDTH 11 0
BBX 9 13 1 -2
BITMAP
0200
0400
0F80
3480
6480
6400
C800
C800
C900
6B00
3E00
1000
1000
ENDCHAR

STARTCHAR sterling
ENCODING 163
SWIDTH 556 0
DWIDTH 11 0
BBX 11 14 0 0
BITMAP
03C0
0660
0C40
0C00
1800
1800
1800
7F00
1000
3000
2000
6000
FF80
FF80
ENDCHAR

STARTCHAR EuroSign
ENCODING 164
SWIDTH 509 0
DWIDTH 10 0
BBX 12 13 0 0
BITMAP
03E0
0430
0820
1020
2000
FF00
4000
FE00
4000
4000
4080
4100
3E00
ENDCHAR

STARTCHAR yen
ENCODING 165
SWIDTH 556 0
DWIDTH 11 0
BBX 12 14 0 0
BITMAP
78F0
3020
1040
1880
1900
79E0
0A00
0C00
FFC0
0C00
0800
0800
0800
3E00
ENDCHAR

STARTCHAR Scaron
ENCODING 166
SWIDTH 537 0
DWIDTH 10 0
BBX 10 17 0 0
BITMAP
0900
0500
0300
0780
18C0
1080
3080
3000
3800
1C00
0700
0380
0180
4180
4100
C300
7C00
ENDCHAR

STARTCHAR section
ENCODING 167
SWIDTH 500 0
DWIDTH 10 0
BBX 10 16 0 -3
BITMAP
07C0
0880
1080
1800
1C00
0F00
3380
6180
6180
7300
3C00
0E00
0600
C200
C400
7800
ENDCHAR

STARTCHAR scaron
ENCODING 168
SWIDTH 370 0
DWIDTH 7 0
BBX 6 12 0 0
BITMAP
24
14
0C
1C
2C
60
20
38
0C
C8
88
70
ENDCHAR

STARTCHAR copyright
ENCODING 169
SWIDTH 900 0
DWIDTH 17 0
BBX 15 15 1 -2
BITMAP
07C0
1830
2008
43E4
4E24
8C22
9802
9802
9802
8C22
4E24
43E4
2008
1830
07C0
ENDCHAR

STARTCHAR ordfeminine
ENCODING 170
SWIDTH 394 0
DWIDTH 8 0
BBX 7 6 0 6
BITMAP
3E
46
84
8C
98
6E
ENDCHAR

STARTCHAR guillemotleft
ENCODING 171
SWIDTH 442 0
DWIDTH 9 0
BBX 8 7 0 1
BITMAP
11
33
44
88
CC
66
22
ENDCHAR

STARTCHAR logicalnot
ENCODING 172
SWIDTH 833 0
DWIDTH 16 0
BBX 11 5 3 3
BITMAP
FFE0
0020
0020
0020
0020
ENDCHAR

STARTCHAR hyphen
ENCODING 173
SWIDTH 319 0
DWIDTH 6 0
BBX 4 1 1 4
BITMAP
F0
ENDCHAR

STARTCHAR registered
ENCODING 174
SWIDTH 900 0
DWIDTH 17 0
BBX 15 15 1 -2
BITMAP
07C0
1830
2008
4FC4
44E4
8462
84C2
8782
84C2
8462
4464
4E3C
2008
1830
07C0
ENDCHAR

STARTCHAR macron
ENCODING 175
SWIDTH 500 0
DWIDTH 10 0
BBX 6 1 3 11
BITMAP
FC
ENDCHAR

STARTCHAR degree
ENCODING 176
SWIDTH 329 0
DWIDTH 6 0
BBX 5 5 1 8
BITMAP
70
88
88
88
70
ENDCHAR

STARTCHAR plusminus
ENCODING 177
SWIDTH 833 0
DWIDTH 16 0
BBX 11 10 3 0
BITMAP
0400
0400
0400
FFE0
0400
0400
0400
0000
0000
FFE0
ENDCHAR

STARTCHAR twosuperior
ENCODING 178
SWIDTH 367 0
DWIDTH 7 0
BBX 6 8 0 5
BITMAP
38
44
44
04
18
20
44
F8
ENDCHAR

STARTCHAR threesuperior
ENCODING 179
SWIDTH 367 0
DWIDTH 7 0
BBX 6 8 0 5
BITMAP
38
44
0C
30
08
0C
88
70
ENDCHAR

STARTCHAR Zcaron
ENCODING 180
SWIDTH 556 0
DWIDTH 11 0
BBX 12 17 -1 0
BITMAP
0480
0280
0180
1FF0
1060
10E0
20C0
0180
0300
0600
0600
0C00
1800
3040
7040
60C0
FFC0
ENDCHAR

STARTCHAR mu
ENCODING 181
SWIDTH 548 0
DWIDTH 10 0
BBX 11 12 -1 -4
BITMAP
3080
3180
2180
2100
2100
6320
6340
5DC0
4000
C000
C000
8000
ENDCHAR

STARTCHAR paragraph
ENCODING 182
SWIDTH 484 0
DWIDTH 9 0
BBX 9 16 0 -2
BITMAP
1F80
7D00
FD00
FD00
FD00
FD00
7D00
3D00
0100
0100
0100
0100
0100
0100
0100
0100
ENDCHAR

STARTCHAR periodcentered
ENCODING 183
SWIDTH 278 0
DWIDTH 5 0
BBX 2 2 2 5
BITMAP
C0
C0
ENDCHAR

STARTCHAR zcaron
ENCODING 184
SWIDTH 440 0
DWIDTH 8 0
BBX 9 12 -1 0
BITMAP
1200
0A00
0600
3F80
4500
6200
2400
0800
1300
2100
7900
FE00
ENDCHAR

STARTCHAR onesuperior
ENCODING 185
SWIDTH 367 0
DWIDTH 7 0
BBX 4 8 1 5
BITMAP
30
70
10
20
20
20
20
F0
ENDCHAR

STARTCHAR ordmasculine
ENCODING 186
SWIDTH 377 0
DWIDTH 7 0
BBX 6 6 0 6
BITMAP
38
44
84
84
88
70
ENDCHAR

STARTCHAR guillemotright
ENCODING 187
SWIDTH 442 0
DWIDTH 9 0
BBX 8 7 0 1
BITMAP
44
66
33
11
32
4C
88
ENDCHAR

STARTCHAR Ligature_OE
ENCODING 188
SWIDTH 967 0
DWIDTH 19 0
BBX 18 13 1 0
BITMAP
03FFC0
0C0880
101080
201000
401200
402200
803E00
802400
804400
804000
804100
608200
3FFE00
ENDCHAR

STARTCHAR Ligature_oe
ENCODING 189
SWIDTH 661 0
DWIDTH 13 0
BBX 12 9 0 0
BITMAP
1C70
2290
6310
4320
8240
8780
8600
8A20
71C0
ENDCHAR

STARTCHAR Ydiaeresis
ENCODING 190
SWIDTH 563 0
DWIDTH 11 0
BBX 11 17 1 0
BITMAP
0CC0
0CC0
0000
F1E0
6080
2080
3100
3200
1200
1400
1800
1800
1800
1800
1000
1000
7C00
ENDCHAR

STARTCHAR questiondown
ENCODING 191
SWIDTH 486 0
DWIDTH 9 0
BBX 6 14 1 0
BITMAP
0C
0C
00
08
08
08
30
60
40
C0
C0
CC
CC
78
ENDCHAR

STARTCHAR Agrave
ENCODING 192
SWIDTH 606 0
DWIDTH 11 0
BBX 13 17 -2 0
BITMAP
00C0
0040
0060
00E0
01C0
01C0
0340
0240
0460
0460
0860
0FE0
1060
3020
2030
6030
F078
ENDCHAR

STARTCHAR Aacute
ENCODING 193
SWIDTH 606 0
DWIDTH 11 0
BBX 14 17 -2 0
BITMAP
000C
0018
0030
00E0
01C0
01C0
0340
0240
0460
0460
0860
0FE0
1060
3020
2030
6030
F078
ENDCHAR

STARTCHAR Acircumflex
ENCODING 194
SWIDTH 606 0
DWIDTH 11 0
BBX 13 17 -2 0
BITMAP
0030
0050
0090
01C8
01C0
01C0
0340
0240
0460
0460
0860
0FE0
1060
3020
2030
6030
F078
ENDCHAR

STARTCHAR Atilde
ENCODING 195
SWIDTH 606 0
DWIDTH 11 0
BBX 14 17 -2 0
BITMAP
0044
01F8
0110
00C0
01C0
01C0
0340
0240
0460
0460
0860
0FE0
1060
3020
2030
6030
F078
ENDCHAR

STARTCHAR Adieresis
ENCODING 196
SWIDTH 606 0
DWIDTH 11 0
BBX 13 17 -2 0
BITMAP
0198
0198
0000
00C0
01C0
01C0
0340
0240
0460
0460
0860
0FE0
1060
3020
2030
6030
F078
ENDCHAR

STARTCHAR Aring
ENCODING 197
SWIDTH 606 0
DWIDTH 11 0
BBX 13 19 -2 0
BITMAP
00E0
0130
0120
00E0
0000
00C0
01C0
01C0
0340
0240
0460
0460
0860
0FE0
1060
3020
2030
6030
F078
ENDCHAR

STARTCHAR AE
ENCODING 198
SWIDTH 873 0
DWIDTH 17 0
BBX 19 14 -2 0
BITMAP
007FE0
002820
005820
009800
011880
011080
021F00
07F100
083000
083000
103040
202040
602080
F0FF80
ENDCHAR

STARTCHAR Ccedilla
ENCODING 199
SWIDTH 604 0
DWIDTH 12 0
BBX 11 19 1 -5
BITMAP
07C0
0C20
3020
2020
6000
6000
C000
C000
C000
C000
C080
6080
3080
1F00
0400
0600
0200
0200
1C00
ENDCHAR

STARTCHAR Egrave
ENCODING 200
SWIDTH 546 0
DWIDTH 10 0
BBX 11 17 0 0
BITMAP
0600
0200
0300
3FE0
0820
1820
1800
1880
1080
1F00
3100
3100
3000
3040
2040
2080
FF80
ENDCHAR

STARTCHAR Eacute
ENCODING 201
SWIDTH 546 0
DWIDTH 10 0
BBX 11 17 0 0
BITMAP
0060
00C0
0180
3FE0
0820
1820
1800
1880
1080
1F00
3100
3100
3000
3040
2040
2080
FF80
ENDCHAR

STARTCHAR Ecircumflex
ENCODING 202
SWIDTH 546 0
DWIDTH 10 0
BBX 11 17 0 0
BITMAP
0180
0280
0480
3FE0
0820
1820
1800
1880
1080
1F00
3100
3100
3000
3040
2040
2080
FF80
ENDCHAR

STARTCHAR Edieresis
ENCODING 203
SWIDTH 546 0
DWIDTH 10 0
BBX 11 17 0 0
BITMAP
0CC0
0CC0
0000
3FE0
0820
1820
1800
1880
1080
1F00
3100
3100
3000
3040
2040
2080
FF80
ENDCHAR

STARTCHAR Igrave
ENCODING 204
SWIDTH 313 0
DWIDTH 6 0
BBX 7 17 0 0
BITMAP
18
08
0C
3E
08
18
18
18
18
10
10
30
30
30
30
20
F8
ENDCHAR

STARTCHAR Iacute
ENCODING 205
SWIDTH 313 0
DWIDTH 6 0
BBX 9 17 0 0
BITMAP
0180
0300
0600
3E00
0800
1800
1800
1800
1800
1000
1000
3000
3000
3000
3000
2000
F800
ENDCHAR

STARTCHAR Icircumflex
ENCODING 206
SWIDTH 313 0
DWIDTH 6 0
BBX 8 17 0 0
BITMAP
06
0A
12
3F
08
18
18
18
18
10
10
30
30
30
30
20
F8
ENDCHAR

STARTCHAR Idieresis
ENCODING 207
SWIDTH 313 0
DWIDTH 6 0
BBX 8 17 0 0
BITMAP
33
33
00
3E
08
18
18
18
18
10
10
30
30
30
30
20
F8
ENDCHAR

STARTCHAR Eth
ENCODING 208
SWIDTH 671 0
DWIDTH 13 0
BBX 13 14 -1 0
BITMAP
3FC0
0860
0830
1818
1818
1818
7F18
1018
3030
3030
3060
3040
2180
FE00
ENDCHAR

STARTCHAR Ntilde
ENCODING 209
SWIDTH 683 0
DWIDTH 14 0
BBX 15 17 -1 0
BITMAP
0088
03F0
0220
3C1E
0C08
0E08
1608
1208
1308
1310
1190
3190
20D0
20D0
2070
2060
F020
ENDCHAR

STARTCHAR Ograve
ENCODING 210
SWIDTH 708 0
DWIDTH 14 0
BBX 12 17 1 0
BITMAP
0300
0100
0180
0780
18C0
3060
2030
6030
6030
C030
C030
C060
C060
C060
60C0
3180
1E00
ENDCHAR

STARTCHAR Oacute
ENCODING 211
SWIDTH 708 0
DWIDTH 14 0
BBX 12 17 1 0
BITMAP
0030
0060
00C0
0780
18C0
3060
2030
6030
6030
C030
C030
C060
C060
C060
60C0
3180
1E00
ENDCHAR

STARTCHAR Ocircumflex
ENCODING 212
SWIDTH 708 0
DWIDTH 14 0
BBX 12 17 1 0
BITMAP
00C0
0140
0240
07A0
18C0
3060
2030
6030
6030
C030
C030
C060
C060
C060
60C0
3180
1E00
ENDCHAR

STARTCHAR Otilde
ENCODING 213
SWIDTH 708 0
DWIDTH 14 0
BBX 12 17 1 0
BITMAP
0110
07E0
0440
0780
18C0
3060
2030
6030
6030
C030
C030
C060
C060
C060
60C0
3180
1E00
ENDCHAR

STARTCHAR Odieresis
ENCODING 214
SWIDTH 708 0
DWIDTH 14 0
BBX 12 17 1 0
BITMAP
0660
0660
0000
0780
18C0
3060
2030
6030
6030
C030
C030
C060
C060
C060
60C0
3180
1E00
ENDCHAR

STARTCHAR multiply
ENCODING 215
SWIDTH 833 0
DWIDTH 16 0
BBX 10 10 3 0
BITMAP
8040
4080
2100
1200
0C00
0C00
1200
2100
4080
8040
ENDCHAR

STARTCHAR Oslash
ENCODING 216
SWIDTH 708 0
DWIDTH 14 0
BBX 12 15 1 -1
BITMAP
07E0
1840
30E0
2130
6130
6230
C230
C430
C820
C860
D040
70C0
3180
5E00
4000
ENDCHAR

STARTCHAR Ugrave
ENCODING 217
SWIDTH 664 0
DWIDTH 13 0
BBX 13 17 1 0
BITMAP
0600
0200
0300
F978
3020
2020
6020
6020
6020
6040
4040
C040
C040
C040
C080
E180
3E00
ENDCHAR

STARTCHAR Uacute
ENCODING 218
SWIDTH 664 0
DWIDTH 13 0
BBX 13 17 1 0
BITMAP
0060
00C0
0180
FB78
3020
2020
6020
6020
6020
6040
4040
C040
C040
C040
C080
E180
3E00
ENDCHAR

STARTCHAR Ucircumflex
ENCODING 219
SWIDTH 664 0
DWIDTH 13 0
BBX 13 17 1 0
BITMAP
0180
0280
0480
FC78
3020
2020
6020
6020
6020
6040
4040
C040
C040
C040
C080
E180
3E00
ENDCHAR

STARTCHAR Udieresis
ENCODING 220
SWIDTH 664 0
DWIDTH 13 0
BBX 13 17 1 0
BITMAP
0CC0
0CC0
0000
F878
3020
2020
6020
6020
6020
6040
4040
C040
C040
C040
C080
E180
3E00
ENDCHAR

STARTCHAR Yacute
ENCODING 221
SWIDTH 563 0
DWIDTH 11 0
BBX 11 17 1 0
BITMAP
00C0
0180
0300
F7E0
6080
2080
3100
3200
1200
1400
1800
1800
1800
1800
1000
1000
7C00
ENDCHAR

STARTCHAR Thorn
ENCODING 222
SWIDTH 532 0
DWIDTH 10 0
BBX 11 14 -1 0
BITMAP
3E00
0800
1F80
18C0
1860
1860
1060
1060
30C0
3180
3F00
2000
2000
F800
ENDCHAR

STARTCHAR germandbls
ENCODING 223
SWIDTH 574 0
DWIDTH 11 0
BBX 13 19 -3 -5
BITMAP
00E0
0318
0218
0618
0410
0470
0480
0C80
0CC0
0870
0838
0B10
0B30
19C0
1000
1000
1000
E000
C000
ENDCHAR

STARTCHAR agrave
ENCODING 224
SWIDTH 525 0
DWIDTH 10 0
BBX 9 13 0 0
BITMAP
0C00
0400
0600
0200
0F80
3180
6100
6100
C100
C300
C300
E600
7B80
ENDCHAR

STARTCHAR aacute
ENCODING 225
SWIDTH 525 0
DWIDTH 10 0
BBX 10 13 0 0
BITMAP
00C0
0180
0300
0600
0F80
3180
6100
6100
C100
C300
C300
E600
7B80
ENDCHAR

STARTCHAR acircumflex
ENCODING 226
SWIDTH 525 0
DWIDTH 10 0
BBX 9 13 0 0
BITMAP
0300
0500
0900
1880
0F80
3180
6100
6100
C100
C300
C300
E600
7B80
ENDCHAR

STARTCHAR atilde
ENCODING 227
SWIDTH 525 0
DWIDTH 10 0
BBX 10 13 0 0
BITMAP
0440
1F80
1100
0000
0F80
3180
6100
6100
C100
C300
C300
E600
7B80
ENDCHAR

STARTCHAR adieresis
ENCODING 228
SWIDTH 525 0
DWIDTH 10 0
BBX 9 13 0 0
BITMAP
1980
1980
0000
0000
0F80
3180
6100
6100
C100
C300
C300
E600
7B80
ENDCHAR

STARTCHAR aring
ENCODING 229
SWIDTH 525 0
DWIDTH 10 0
BBX 9 14 0 0
BITMAP
0600
0900
0900
0600
0000
0F80
3180
6100
6100
C100
C300
C300
E600
7B80
ENDCHAR

STARTCHAR ae
ENCODING 230
SWIDTH 671 0
DWIDTH 13 0
BBX 12 9 0 0
BITMAP
1CE0
2330
6230
0660
1F80
6600
C600
CE30
73C0
ENDCHAR

STARTCHAR ccedilla
ENCODING 231
SWIDTH 394 0
DWIDTH 8 0
BBX 7 14 0 -5
BITMAP
0E
36
60
40
C0
C0
C2
66
38
20
30
10
10
E0
ENDCHAR

STARTCHAR egrave
ENCODING 232
SWIDTH 424 0
DWIDTH 8 0
BBX 7 13 0 0
BITMAP
0C
04
06
02
1C
26
66
48
F0
C0
C0
C6
38
ENDCHAR

STARTCHAR eacute
ENCODING 233
SWIDTH 424 0
DWIDTH 8 0
BBX 10 13 0 0
BITMAP
00C0
0180
0300
0600
1C00
2600
6600
4800
F000
C000
C000
C600
3800
ENDCHAR

STARTCHAR ecircumflex
ENCODING 234
SWIDTH 424 0
DWIDTH 8 0
BBX 9 13 0 0
BITMAP
0300
0500
0900
1880
1C00
2600
6600
4800
F000
C000
C000
C600
3800
ENDCHAR

STARTCHAR edieresis
ENCODING 235
SWIDTH 424 0
DWIDTH 8 0
BBX 9 13 0 0
BITMAP
1980
1980
0000
0000
1C00
2600
6600
4800
F000
C000
C000
C600
3800
ENDCHAR

STARTCHAR igrave
ENCODING 236
SWIDTH 287 0
DWIDTH 6 0
BBX 4 13 1 0
BITMAP
60
20
30
10
E0
60
60
40
40
C0
C0
C0
F0
ENDCHAR

STARTCHAR iacute
ENCODING 237
SWIDTH 287 0
DWIDTH 6 0
BBX 7 13 1 0
BITMAP
06
0C
18
30
E0
60
60
40
40
C0
C0
C0
F0
ENDCHAR

STARTCHAR icircumflex
ENCODING 238
SWIDTH 287 0
DWIDTH 6 0
BBX 6 13 1 0
BITMAP
18
28
48
C4
E0
60
60
40
40
C0
C0
C0
F0
ENDCHAR

STARTCHAR idieresis
ENCODING 239
SWIDTH 287 0
DWIDTH 6 0
BBX 6 13 1 0
BITMAP
CC
CC
00
00
E0
60
60
40
40
C0
C0
C0
F0
ENDCHAR

STARTCHAR eth
ENCODING 240
SWIDTH 500 0
DWIDTH 10 0
BBX 9 14 0 0
BITMAP
1C00
0580
0600
3A00
0300
0F00
3180
6180
4180
C180
C180
C300
6600
3800
ENDCHAR

STARTCHAR ntilde
ENCODING 241
SWIDTH 556 0
DWIDTH 11 0
BBX 10 13 1 0
BITMAP
0880
3F00
2200
0000
F780
3980
6180
6180
6100
4100
4300
C300
C3C0
ENDCHAR

STARTCHAR ograve
ENCODING 242
SWIDTH 502 0
DWIDTH 10 0
BBX 9 13 0 0
BITMAP
0C00
0400
0600
0200
0E00
3300
6180
4180
C180
C180
C300
6600
3800
ENDCHAR

STARTCHAR oacute
ENCODING 243
SWIDTH 502 0
DWIDTH 10 0
BBX 10 13 0 0
BITMAP
00C0
0180
0300
0600
0E00
3300
6180
4180
C180
C180
C300
6600
3800
ENDCHAR

STARTCHAR ocircumflex
ENCODING 244
SWIDTH 502 0
DWIDTH 10 0
BBX 9 13 0 0
BITMAP
0300
0500
0900
1880
0E00
3300
6180
4180
C180
C180
C300
6600
3800
ENDCHAR

STARTCHAR otilde
ENCODING 245
SWIDTH 502 0
DWIDTH 10 0
BBX 10 13 0 0
BITMAP
0440
1F80
1100
0000
0E00
3300
6180
4180
C180
C180
C300
6600
3800
ENDCHAR

STARTCHAR odieresis
ENCODING 246
SWIDTH 502 0
DWIDTH 10 0
BBX 9 13 0 0
BITMAP
1980
1980
0000
0000
0E00
3300
6180
4180
C180
C180
C300
6600
3800
ENDCHAR

STARTCHAR divide
ENCODING 247
SWIDTH 833 0
DWIDTH 16 0
BBX 12 9 2 1
BITMAP
0600
0600
0000
0000
FFF0
0000
0000
0600
0600
ENDCHAR

STARTCHAR oslash
ENCODING 248
SWIDTH 502 0
DWIDTH 10 0
BBX 9 12 0 -2
BITMAP
0080
0F00
3300
6580
4580
C980
D180
D300
6600
7800
4000
8000
ENDCHAR

STARTCHAR ugrave
ENCODING 249
SWIDTH 553 0
DWIDTH 11 0
BBX 9 13 1 0
BITMAP
1800
0800
0C00
0400
E180
6180
6100
4100
4300
C300
C200
CE00
7380
ENDCHAR

STARTCHAR uacute
ENCODING 250
SWIDTH 553 0
DWIDTH 11 0
BBX 9 13 1 0
BITMAP
0180
0300
0600
0C00
E180
6180
6100
4100
4300
C300
C200
CE00
7380
ENDCHAR

STARTCHAR ucircumflex
ENCODING 251
SWIDTH 553 0
DWIDTH 11 0
BBX 9 13 1 0
BITMAP
0600
0A00
1200
3100
E180
6180
6100
4100
4300
C300
C200
CE00
7380
ENDCHAR

STARTCHAR udieresis
ENCODING 252
SWIDTH 553 0
DWIDTH 11 0
BBX 9 13 1 0
BITMAP
3300
3300
0000
0000
E180
6180
6100
4100
4300
C300
C200
CE00
7380
ENDCHAR

STARTCHAR yacute
ENCODING 253
SWIDTH 475 0
DWIDTH 10 0
BBX 12 18 -2 -5
BITMAP
0030
0060
00C0
0180
3830
0C60
0C40
0440
0480
0480
0700
0700
0200
0200
0400
0C00
D800
E000
ENDCHAR

STARTCHAR thorn
ENCODING 254
SWIDTH 516 0
DWIDTH 10 0
BBX 10 19 -1 -5
BITMAP
3800
0800
1800
1800
1800
1780
19C0
10C0
30C0
30C0
2080
2180
2300
3C00
2000
6000
4000
4000
F000
ENDCHAR

STARTCHAR ydieresis
ENCODING 255
SWIDTH 475 0
DWIDTH 10 0
BBX 12 18 -2 -5
BITMAP
0660
0660
0000
0000
3830
0C60
0C40
0440
0480
0480
0700
0700
0200
0200
0400
0C00
D800
E000
ENDCHAR
ENDFONT
